<svg xmlns="http://www.w3.org/2000/svg" width="48" height="48" fill="none"><path fill="#000" d="M8.99 13.398V7.084h-.57A5.42 5.42 0 0 0 3 12.504v.894zM3 16.098h5.99v4.962H3zm0 7.664h5.99v4.963H3zm5.99 7.663H3v.892a5.42 5.42 0 0 0 5.42 5.42h.57zm25.957-15.327h5.988v4.962h-5.988zm0-2.7h5.988v-.894a5.42 5.42 0 0 0-5.42-5.42h-.57zm7.899 16.113 1.224-1.224a3.172 3.172 0 1 0-4.486-4.486l-1.225 1.224zm-6.396-2.577-8.577 8.577c-.167.166-.276.38-.315.612l-.587 3.473a1.132 1.132 0 0 0 1.304 1.303l3.473-.587c.23-.038.445-.15.611-.314l8.578-8.577zm-11.555 8.739c.128-.782.5-1.502 1.069-2.07l6.282-6.282V7.084H11.688v30.653h12.858l.35-2.064ZM19.18 24.778v-4.736c0-1.487 1.678-2.356 2.891-1.498l3.351 2.369a1.833 1.833 0 0 1 0 2.994l-3.351 2.369c-1.213.858-2.89-.011-2.89-1.497Z"/></svg>