<svg xmlns="http://www.w3.org/2000/svg" width="1800" height="900" viewBox="0 0 1800 900">
  <defs>
    <filter id="shadow" x="-20%" y="-20%" width="140%" height="140%">
      <feDropShadow dx="0" dy="24" stdDeviation="32" flood-color="#000000" flood-opacity="0.36"/>
    </filter>
    <filter id="softShadow" x="-20%" y="-20%" width="140%" height="140%">
      <feDropShadow dx="0" dy="14" stdDeviation="18" flood-color="#000000" flood-opacity="0.26"/>
    </filter>
    <linearGradient id="panel" x1="0" x2="1" y1="0" y2="1">
      <stop offset="0" stop-color="#2b231e"/>
      <stop offset="1" stop-color="#1d1916"/>
    </linearGradient>
    <clipPath id="mapClip">
      <rect x="210" y="145" width="1380" height="610" rx="8"/>
    </clipPath>
  </defs>

  <rect width="1800" height="900" fill="#101010"/>
  <rect x="178" y="112" width="1444" height="676" rx="8" fill="url(#panel)" stroke="#4a4037" stroke-width="1.4" filter="url(#shadow)"/>

  <g clip-path="url(#mapClip)">
    <rect x="210" y="145" width="1380" height="610" fill="#f4f2ec"/>

    <path d="M190 255 C360 210 465 245 585 185 C770 92 860 180 990 145 C1148 103 1272 158 1605 112" fill="none" stroke="#cfd9e3" stroke-width="18"/>
    <path d="M160 535 C352 477 502 545 670 487 C798 443 1007 540 1192 485 C1328 445 1485 453 1650 397" fill="none" stroke="#d7dfe8" stroke-width="16"/>
    <path d="M300 120 L430 765" fill="none" stroke="#91d7e7" stroke-width="34"/>
    <path d="M285 118 L415 767" fill="none" stroke="#f9fbfb" stroke-width="10" opacity="0.65"/>

    <path d="M1100 120 L945 755" fill="none" stroke="#c9d4de" stroke-width="12"/>
    <path d="M1048 118 L888 755" fill="none" stroke="#c9d4de" stroke-width="10"/>
    <path d="M810 145 L1002 755" fill="none" stroke="#c9d4de" stroke-width="10"/>
    <path d="M575 130 L740 755" fill="none" stroke="#c9d4de" stroke-width="10"/>
    <path d="M1348 130 L1175 755" fill="none" stroke="#c9d4de" stroke-width="11"/>
    <path d="M200 665 L1600 705" fill="none" stroke="#c9d4de" stroke-width="12"/>
    <path d="M200 420 L1600 330" fill="none" stroke="#d0d9e2" stroke-width="10"/>
    <path d="M200 360 L1600 245" fill="none" stroke="#e3d6b6" stroke-width="15"/>
    <path d="M205 362 L1595 247" fill="none" stroke="#fff3c9" stroke-width="8"/>

    <rect x="720" y="420" width="270" height="125" rx="8" fill="#c8edcf" opacity="0.95"/>
    <rect x="1284" y="400" width="285" height="188" rx="80" fill="#87d5e4"/>
    <rect x="1158" y="588" width="278" height="155" rx="16" fill="#d5f0dc"/>

    <text x="760" y="492" fill="#2d8e55" font-family="Arial, sans-serif" font-size="30" font-weight="700">Taman Desa</text>
    <text x="760" y="530" fill="#2d8e55" font-family="Arial, sans-serif" font-size="26" font-weight="700">Playground Park</text>
    <text x="575" y="355" fill="#e06f00" font-family="Arial, sans-serif" font-size="28" font-weight="700">Brew N Bread</text>
    <text x="585" y="390" fill="#e06f00" font-family="Arial, sans-serif" font-size="26" font-weight="700">Taman Desa</text>
    <text x="1245" y="602" fill="#61737c" font-family="Arial, sans-serif" font-size="30" font-weight="700">M Aspira Sales Gallery</text>

    <text x="640" y="295" fill="#53606a" font-family="Arial, sans-serif" font-size="24" font-weight="700" transform="rotate(-16 640 295)">Jalan Desa Bakti</text>
    <text x="720" y="455" fill="#53606a" font-family="Arial, sans-serif" font-size="23" font-weight="700" transform="rotate(16 720 455)">Jalan Desa Jaya</text>
    <text x="990" y="438" fill="#53606a" font-family="Arial, sans-serif" font-size="22" font-weight="700" transform="rotate(-75 990 438)">Jalan Desa Bahagia</text>

    <g transform="translate(898 365)">
      <path d="M0 0 C-38 0 -69 31 -69 69 C-69 124 0 180 0 180 C0 180 69 124 69 69 C69 31 38 0 0 0Z" fill="#e93323" filter="url(#softShadow)"/>
      <circle cx="0" cy="68" r="25" fill="#b91f16"/>
    </g>

    <g opacity="0.94">
      <circle cx="370" cy="360" r="25" fill="#fff" stroke="#c7d2da" stroke-width="4"/>
      <circle cx="575" cy="455" r="25" fill="#fff" stroke="#c7d2da" stroke-width="4"/>
      <circle cx="905" cy="510" r="25" fill="#fff" stroke="#c7d2da" stroke-width="4"/>
      <circle cx="1120" cy="388" r="25" fill="#fff" stroke="#c7d2da" stroke-width="4"/>
    </g>
  </g>

  <rect x="210" y="145" width="1380" height="610" rx="8" fill="none" stroke="#fff8ed" stroke-opacity="0.18" stroke-width="1"/>

  <g filter="url(#softShadow)">
    <rect x="238" y="173" width="360" height="136" rx="8" fill="#181512" fill-opacity="0.92" stroke="#ffc928" stroke-opacity="0.35"/>
    <rect x="238" y="173" width="5" height="136" rx="2.5" fill="#ffc928"/>
    <text x="270" y="222" fill="#ffc928" font-family="Arial, sans-serif" font-size="22" font-weight="800" letter-spacing="1.5">KAT SINI JE</text>
    <text x="270" y="269" fill="#fff8ed" font-family="Arial, sans-serif" font-size="31" font-weight="800">FZL Kitchen</text>
    <text x="270" y="302" fill="#c9bca8" font-family="Arial, sans-serif" font-size="23" font-weight="700">Taman Desa</text>
  </g>

  <g transform="translate(1480 690)" opacity="0.96">
    <circle cx="0" cy="0" r="38" fill="#fff" stroke="#c7d2da" stroke-width="3"/>
    <path d="M-14 -2 H14 M0 -16 V14" stroke="#6c7780" stroke-width="5" stroke-linecap="round"/>
  </g>

  <text x="210" y="825" fill="#5f554d" font-family="Arial, sans-serif" font-size="22">Mockup: floating location label over full interactive map</text>
</svg>
