<svg xmlns="http://www.w3.org/2000/svg" width="1800" height="900" viewBox="0 0 1800 900">
  <defs>
    <filter id="outerShadow" x="-20%" y="-20%" width="140%" height="140%">
      <feDropShadow dx="0" dy="26" stdDeviation="34" flood-color="#000000" flood-opacity="0.34"/>
    </filter>
    <filter id="labelShadow" x="-25%" y="-25%" width="150%" height="150%">
      <feDropShadow dx="0" dy="16" stdDeviation="18" flood-color="#000000" flood-opacity="0.30"/>
    </filter>
    <clipPath id="cardClip">
      <rect x="170" y="120" width="1460" height="640" rx="8"/>
    </clipPath>
    <linearGradient id="mapFade" x1="0" x2="0" y1="0" y2="1">
      <stop offset="0" stop-color="#000000" stop-opacity="0.18"/>
      <stop offset="0.32" stop-color="#000000" stop-opacity="0"/>
      <stop offset="1" stop-color="#000000" stop-opacity="0.04"/>
    </linearGradient>
  </defs>

  <rect width="1800" height="900" fill="#101010"/>

  <g filter="url(#outerShadow)">
    <rect x="170" y="120" width="1460" height="640" rx="8" fill="#15120f" stroke="#4a4037" stroke-width="1.5"/>
  </g>

  <g clip-path="url(#cardClip)">
    <rect x="170" y="120" width="1460" height="640" fill="#f5f2eb"/>

    <path d="M120 252 C315 203 442 248 590 178 C774 91 882 169 1038 128 C1212 83 1348 146 1662 108" fill="none" stroke="#ccd8e3" stroke-width="19"/>
    <path d="M125 540 C350 467 502 550 685 486 C808 442 1015 540 1210 485 C1378 438 1484 454 1685 396" fill="none" stroke="#d7dfe8" stroke-width="17"/>
    <path d="M280 88 L420 780" fill="none" stroke="#85d3e5" stroke-width="40"/>
    <path d="M260 85 L400 785" fill="none" stroke="#ffffff" stroke-width="10" opacity="0.52"/>

    <path d="M205 642 L1618 694" fill="none" stroke="#c9d4de" stroke-width="12"/>
    <path d="M170 408 L1630 318" fill="none" stroke="#d0d9e2" stroke-width="11"/>
    <path d="M170 352 L1630 238" fill="none" stroke="#e2d4b2" stroke-width="17"/>
    <path d="M170 353 L1630 239" fill="none" stroke="#fff4ce" stroke-width="8"/>
    <path d="M1112 105 L944 760" fill="none" stroke="#c9d4de" stroke-width="12"/>
    <path d="M1048 118 L888 760" fill="none" stroke="#c9d4de" stroke-width="10"/>
    <path d="M808 120 L1012 768" fill="none" stroke="#c9d4de" stroke-width="10"/>
    <path d="M562 110 L740 765" fill="none" stroke="#c9d4de" stroke-width="10"/>
    <path d="M1354 105 L1180 765" fill="none" stroke="#c9d4de" stroke-width="11"/>

    <rect x="720" y="416" width="284" height="132" rx="8" fill="#c8edcf" opacity="0.97"/>
    <rect x="1280" y="392" width="320" height="194" rx="84" fill="#89d7e6"/>
    <rect x="1165" y="590" width="278" height="150" rx="16" fill="#d5f0dc"/>

    <text x="755" y="492" fill="#2d8e55" font-family="Arial, sans-serif" font-size="31" font-weight="700">Taman Desa</text>
    <text x="755" y="530" fill="#2d8e55" font-family="Arial, sans-serif" font-size="26" font-weight="700">Playground Park</text>
    <text x="575" y="352" fill="#e06f00" font-family="Arial, sans-serif" font-size="29" font-weight="700">Brew N Bread</text>
    <text x="590" y="388" fill="#e06f00" font-family="Arial, sans-serif" font-size="26" font-weight="700">Taman Desa</text>
    <text x="1240" y="602" fill="#61737c" font-family="Arial, sans-serif" font-size="30" font-weight="700">M Aspira Sales Gallery</text>

    <text x="640" y="288" fill="#53606a" font-family="Arial, sans-serif" font-size="24" font-weight="700" transform="rotate(-16 640 288)">Jalan Desa Bakti</text>
    <text x="718" y="454" fill="#53606a" font-family="Arial, sans-serif" font-size="23" font-weight="700" transform="rotate(16 718 454)">Jalan Desa Jaya</text>
    <text x="985" y="438" fill="#53606a" font-family="Arial, sans-serif" font-size="22" font-weight="700" transform="rotate(-75 985 438)">Jalan Desa Bahagia</text>

    <g transform="translate(900 368)">
      <path d="M0 0 C-38 0 -69 31 -69 69 C-69 124 0 180 0 180 C0 180 69 124 69 69 C69 31 38 0 0 0Z" fill="#e93323" filter="url(#labelShadow)"/>
      <circle cx="0" cy="68" r="25" fill="#b91f16"/>
    </g>

    <circle cx="370" cy="360" r="25" fill="#fff" stroke="#c7d2da" stroke-width="4"/>
    <circle cx="575" cy="455" r="25" fill="#fff" stroke="#c7d2da" stroke-width="4"/>
    <circle cx="905" cy="510" r="25" fill="#fff" stroke="#c7d2da" stroke-width="4"/>
    <circle cx="1120" cy="388" r="25" fill="#fff" stroke="#c7d2da" stroke-width="4"/>

    <rect x="170" y="120" width="1460" height="640" fill="url(#mapFade)"/>

    <g filter="url(#labelShadow)">
      <rect x="205" y="155" width="346" height="104" rx="8" fill="#181512" fill-opacity="0.92" stroke="#ffc928" stroke-opacity="0.32"/>
      <rect x="205" y="155" width="5" height="104" rx="2.5" fill="#ffc928"/>
      <text x="232" y="198" fill="#ffc928" font-family="Arial, sans-serif" font-size="20" font-weight="800" letter-spacing="1.4">KAT SINI JE</text>
      <text x="232" y="238" fill="#fff8ed" font-family="Arial, sans-serif" font-size="28" font-weight="800">FZL Kitchen, Taman Desa</text>
    </g>

    <g transform="translate(1556 690)">
      <circle cx="0" cy="0" r="38" fill="#fff" stroke="#c7d2da" stroke-width="3"/>
      <path d="M-14 -2 H14 M0 -16 V14" stroke="#6c7780" stroke-width="5" stroke-linecap="round"/>
    </g>
  </g>

  <rect x="170" y="120" width="1460" height="640" rx="8" fill="none" stroke="#ffc928" stroke-opacity="0.16" stroke-width="1.4"/>
  <rect x="170" y="120" width="1460" height="4" fill="#ffc928" opacity="0.9"/>

  <text x="170" y="822" fill="#fff8ed" font-family="Arial, sans-serif" font-size="31" font-weight="800">Recommended map treatment</text>
  <text x="170" y="858" fill="#c9bca8" font-family="Arial, sans-serif" font-size="22" font-weight="600">Edge-to-edge media card, floating FZL label, no duplicated title block.</text>
</svg>
